<svg xmlns="http://www.w3.org/2000/svg" viewBox="0 14.850000381469727 522.8499755859375 45.41122055053711" data-asc="1.011" width="522.8499755859375" height="45.41122055053711"><defs/><g fill="#68e0db"><g transform="translate(0, 0)"><path d="M2.50 50.55Q1.30 50.55 0.65 49.90Q0 49.25 0 48.05L0 17.80Q0 16.60 0.65 15.95Q1.30 15.30 2.50 15.30L12.15 15.30Q20.80 15.30 25.48 19.82Q30.15 24.35 30.15 32.90Q30.15 37.15 28.95 40.45Q27.75 43.75 25.45 45.97Q23.15 48.20 19.83 49.38Q16.50 50.55 12.15 50.55L2.50 50.55M4.65 46.60L11.85 46.60Q15.25 46.60 17.75 45.75Q20.25 44.90 21.93 43.20Q23.60 41.50 24.45 38.92Q25.30 36.35 25.30 32.90Q25.30 26.05 21.93 22.65Q18.55 19.25 11.85 19.25L4.65 19.25L4.65 46.60ZM48 51Q44.05 51 41.23 49.47Q38.40 47.95 36.85 45.13Q35.30 42.30 35.30 38.45Q35.30 34.65 36.83 31.80Q38.35 28.95 41.03 27.35Q43.70 25.75 47.15 25.75Q49.60 25.75 51.58 26.57Q53.55 27.40 54.95 28.95Q56.35 30.50 57.08 32.72Q57.80 34.95 57.80 37.75Q57.80 38.55 57.33 38.97Q56.85 39.40 55.95 39.40L38.85 39.40L38.85 36.50L54.80 36.50L53.95 37.20Q53.95 34.60 53.18 32.77Q52.40 30.95 50.92 30.00Q49.45 29.05 47.25 29.05Q44.85 29.05 43.15 30.17Q41.45 31.30 40.55 33.32Q39.65 35.35 39.65 38L39.65 38.30Q39.65 42.80 41.80 45.10Q43.95 47.40 48 47.40Q49.60 47.40 51.28 47Q52.95 46.60 54.50 45.55Q55.25 45.10 55.88 45.13Q56.50 45.15 56.90 45.52Q57.30 45.90 57.40 46.42Q57.50 46.95 57.25 47.55Q57 48.15 56.30 48.60Q54.65 49.75 52.38 50.38Q50.10 51 48 51ZM74 51Q70.30 51 67.60 49.42Q64.90 47.85 63.45 44.97Q62.00 42.10 62.00 38.20Q62.00 35.30 62.83 33Q63.65 30.70 65.20 29.07Q66.75 27.45 68.98 26.60Q71.20 25.75 74 25.75Q75.75 25.75 77.70 26.30Q79.65 26.85 81.30 28.10Q81.85 28.50 82 29.02Q82.15 29.55 82.03 30.10Q81.90 30.65 81.53 31.02Q81.15 31.40 80.58 31.45Q80 31.50 79.35 31.10Q78.15 30.20 76.83 29.80Q75.50 29.40 74.30 29.40Q72.45 29.40 71.03 30.00Q69.60 30.60 68.63 31.72Q67.65 32.85 67.15 34.47Q66.65 36.10 66.65 38.25Q66.65 42.50 68.65 44.92Q70.65 47.35 74.30 47.35Q75.50 47.35 76.80 46.97Q78.10 46.60 79.35 45.70Q80 45.30 80.55 45.38Q81.10 45.45 81.48 45.82Q81.85 46.20 81.95 46.72Q82.05 47.25 81.88 47.80Q81.70 48.35 81.15 48.70Q79.55 49.90 77.65 50.45Q75.75 51 74 51ZM96.55 51Q92.95 51 90.30 49.45Q87.65 47.90 86.20 45.05Q84.75 42.20 84.75 38.35Q84.75 35.45 85.58 33.13Q86.40 30.80 87.95 29.15Q89.50 27.50 91.68 26.62Q93.85 25.75 96.55 25.75Q100.15 25.75 102.80 27.30Q105.45 28.85 106.90 31.67Q108.35 34.50 108.35 38.35Q108.35 41.25 107.53 43.60Q106.70 45.95 105.15 47.60Q103.60 49.25 101.43 50.13Q99.25 51 96.55 51M96.55 47.40Q98.75 47.40 100.38 46.35Q102.00 45.30 102.88 43.30Q103.75 41.30 103.75 38.35Q103.75 33.95 101.80 31.65Q99.85 29.35 96.55 29.35Q94.40 29.35 92.78 30.37Q91.15 31.40 90.25 33.40Q89.35 35.40 89.35 38.35Q89.35 42.75 91.33 45.07Q93.30 47.40 96.55 47.40ZM122.90 51Q119.95 51 117.98 49.90Q116.00 48.80 115.05 46.65Q114.10 44.50 114.10 41.25L114.10 28.15Q114.10 27.00 114.68 26.42Q115.25 25.85 116.35 25.85Q117.45 25.85 118.05 26.42Q118.65 27.00 118.65 28.15L118.65 41.25Q118.65 44.35 119.90 45.82Q121.15 47.30 123.85 47.30Q126.85 47.30 128.73 45.30Q130.60 43.30 130.60 40L130.60 28.15Q130.60 27.00 131.18 26.42Q131.75 25.85 132.85 25.85Q133.95 25.85 134.55 26.42Q135.15 27.00 135.15 28.15L135.15 48.55Q135.15 50.90 132.95 50.90Q131.85 50.90 131.28 50.30Q130.70 49.70 130.70 48.55L130.70 44.20L131.35 45.05Q130.35 47.95 128.13 49.47Q125.90 51 122.90 51ZM144.70 59.90Q143.65 59.90 143.05 59.30Q142.45 58.70 142.45 57.60L142.45 28.15Q142.45 27.00 143.05 26.42Q143.65 25.85 144.70 25.85Q145.80 25.85 146.38 26.42Q146.95 27.00 146.95 28.15L146.95 32.70L146.40 31.80Q147.20 29.05 149.55 27.40Q151.90 25.75 155.20 25.75Q158.45 25.75 160.85 27.27Q163.25 28.80 164.60 31.62Q165.95 34.45 165.95 38.35Q165.95 42.20 164.63 45.07Q163.30 47.95 160.88 49.47Q158.45 51 155.20 51Q151.95 51 149.60 49.35Q147.25 47.70 146.45 45L147 45L147 57.60Q147 58.70 146.40 59.30Q145.80 59.90 144.70 59.90M154.15 47.40Q156.30 47.40 157.93 46.35Q159.55 45.30 160.45 43.30Q161.35 41.30 161.35 38.35Q161.35 33.95 159.40 31.65Q157.45 29.35 154.15 29.35Q151.95 29.35 150.33 30.37Q148.70 31.40 147.83 33.40Q146.95 35.40 146.95 38.35Q146.95 42.75 148.90 45.07Q150.85 47.40 154.15 47.40ZM179.45 51Q175.70 51 173.75 48.77Q171.80 46.55 171.80 42.35L171.80 17.25Q171.80 16.10 172.40 15.52Q173 14.95 174.05 14.95Q175.15 14.95 175.75 15.52Q176.35 16.10 176.35 17.25L176.35 42Q176.35 44.60 177.43 45.88Q178.50 47.15 180.50 47.15Q180.95 47.15 181.30 47.13Q181.65 47.10 182 47.05Q182.55 47 182.80 47.35Q183.05 47.70 183.05 48.75Q183.05 49.70 182.63 50.22Q182.20 50.75 181.25 50.90Q180.80 50.95 180.35 50.97Q179.90 51 179.45 51ZM197.85 51Q193.90 51 191.08 49.47Q188.25 47.95 186.70 45.13Q185.15 42.30 185.15 38.45Q185.15 34.65 186.68 31.80Q188.20 28.95 190.88 27.35Q193.55 25.75 197.00 25.75Q199.45 25.75 201.43 26.57Q203.40 27.40 204.80 28.95Q206.20 30.50 206.93 32.72Q207.65 34.95 207.65 37.75Q207.65 38.55 207.18 38.97Q206.70 39.40 205.80 39.40L188.70 39.40L188.70 36.50L204.65 36.50L203.80 37.20Q203.80 34.60 203.03 32.77Q202.25 30.95 200.78 30.00Q199.30 29.05 197.10 29.05Q194.70 29.05 193.00 30.17Q191.30 31.30 190.40 33.32Q189.50 35.35 189.50 38L189.50 38.30Q189.50 42.80 191.65 45.10Q193.80 47.40 197.85 47.40Q199.45 47.40 201.13 47Q202.80 46.60 204.35 45.55Q205.10 45.10 205.73 45.13Q206.35 45.15 206.75 45.52Q207.15 45.90 207.25 46.42Q207.35 46.95 207.10 47.55Q206.85 48.15 206.15 48.60Q204.50 49.75 202.23 50.38Q199.95 51 197.85 51ZM222.60 51Q219.40 51 216.98 49.47Q214.55 47.95 213.20 45.07Q211.85 42.20 211.85 38.35Q211.85 34.45 213.18 31.62Q214.50 28.80 216.93 27.27Q219.35 25.75 222.60 25.75Q225.85 25.75 228.20 27.37Q230.55 29.00 231.35 31.70L230.80 31.70L230.80 17.25Q230.80 16.10 231.38 15.52Q231.95 14.95 233.05 14.95Q234.15 14.95 234.75 15.52Q235.35 16.10 235.35 17.25L235.35 48.55Q235.35 49.70 234.75 50.30Q234.15 50.90 233.05 50.90Q232.00 50.90 231.40 50.30Q230.80 49.70 230.80 48.55L230.80 44L231.35 44.90Q230.60 47.70 228.23 49.35Q225.85 51 222.60 51M223.65 47.40Q225.85 47.40 227.48 46.35Q229.10 45.30 229.98 43.30Q230.85 41.30 230.85 38.35Q230.85 33.95 228.90 31.65Q226.95 29.35 223.65 29.35Q221.50 29.35 219.88 30.37Q218.25 31.40 217.35 33.40Q216.45 35.40 216.45 38.35Q216.45 42.75 218.43 45.07Q220.40 47.40 223.65 47.40ZM283.80 56.95Q284.35 57.80 284.25 58.47Q284.15 59.15 283.70 59.63Q283.25 60.10 282.55 60.22Q281.85 60.35 281.15 60.07Q280.45 59.80 279.95 59L276.70 53.70Q275.90 52.40 274.55 51.70Q273.20 51 271.30 51L275.05 49.45Q277.40 49.45 278.78 50.27Q280.15 51.10 281.50 53.25L283.80 56.95M271.35 51Q266.35 51 262.70 48.77Q259.05 46.55 257.03 42.47Q255.00 38.40 255.00 32.90Q255.00 28.75 256.15 25.42Q257.30 22.10 259.43 19.72Q261.55 17.35 264.58 16.10Q267.60 14.85 271.35 14.85Q276.35 14.85 280.00 17.05Q283.65 19.25 285.65 23.30Q287.65 27.35 287.65 32.85Q287.65 37 286.50 40.35Q285.35 43.70 283.23 46.10Q281.10 48.50 278.10 49.75Q275.10 51 271.35 51M271.35 46.90Q274.95 46.90 277.50 45.25Q280.05 43.60 281.43 40.45Q282.80 37.30 282.80 32.90Q282.80 26.25 279.83 22.60Q276.85 18.95 271.35 18.95Q267.75 18.95 265.18 20.57Q262.60 22.20 261.25 25.32Q259.90 28.45 259.90 32.90Q259.90 39.50 262.90 43.20Q265.90 46.90 271.35 46.90ZM295.70 39.10Q294.90 39.10 294.35 38.55Q293.80 38 293.80 37.20Q293.80 36.40 294.35 35.88Q294.90 35.35 295.70 35.35L306.85 35.35Q307.60 35.35 308.18 35.88Q308.75 36.40 308.75 37.20Q308.75 38 308.18 38.55Q307.60 39.10 306.85 39.10L295.70 39.10ZM331.70 51Q326.45 51 322.70 48.80Q318.95 46.60 316.93 42.52Q314.90 38.45 314.90 32.90Q314.90 28.75 316.05 25.42Q317.20 22.10 319.35 19.72Q321.50 17.35 324.63 16.10Q327.75 14.85 331.70 14.85Q334.70 14.85 337.48 15.70Q340.25 16.55 342.25 18.10Q343.05 18.65 343.30 19.35Q343.55 20.05 343.38 20.67Q343.20 21.30 342.73 21.72Q342.25 22.15 341.55 22.17Q340.85 22.20 340.05 21.65Q338.30 20.30 336.23 19.67Q334.15 19.05 331.80 19.05Q327.95 19.05 325.28 20.67Q322.60 22.30 321.23 25.37Q319.85 28.45 319.85 32.90Q319.85 37.30 321.23 40.42Q322.60 43.55 325.28 45.17Q327.95 46.80 331.80 46.80Q334.15 46.80 336.28 46.15Q338.40 45.50 340.20 44.15Q341.00 43.60 341.68 43.65Q342.35 43.70 342.80 44.07Q343.25 44.45 343.43 45.07Q343.60 45.70 343.40 46.35Q343.20 47 342.50 47.50Q340.45 49.25 337.63 50.13Q334.80 51 331.70 51ZM351.60 50.90Q350.55 50.90 349.95 50.30Q349.35 49.70 349.35 48.55L349.35 17.25Q349.35 16.10 349.95 15.52Q350.55 14.95 351.60 14.95Q352.70 14.95 353.30 15.52Q353.90 16.10 353.90 17.25L353.90 31.50L353.25 31.50Q354.30 28.65 356.68 27.20Q359.05 25.75 362.10 25.75Q365.05 25.75 366.95 26.82Q368.85 27.90 369.80 30.05Q370.75 32.20 370.75 35.45L370.75 48.55Q370.75 49.70 370.18 50.30Q369.60 50.90 368.50 50.90Q367.40 50.90 366.80 50.30Q366.20 49.70 366.20 48.55L366.20 35.70Q366.20 32.45 364.95 30.95Q363.70 29.45 360.95 29.45Q357.75 29.45 355.83 31.42Q353.90 33.40 353.90 36.75L353.90 48.55Q353.90 50.90 351.60 50.90ZM386.65 51Q383.70 51 381.73 49.90Q379.75 48.80 378.80 46.65Q377.85 44.50 377.85 41.25L377.85 28.15Q377.85 27.00 378.43 26.42Q379.00 25.85 380.10 25.85Q381.20 25.85 381.80 26.42Q382.40 27.00 382.40 28.15L382.40 41.25Q382.40 44.35 383.65 45.82Q384.90 47.30 387.60 47.30Q390.60 47.30 392.48 45.30Q394.35 43.30 394.35 40L394.35 28.15Q394.35 27.00 394.93 26.42Q395.50 25.85 396.60 25.85Q397.70 25.85 398.30 26.42Q398.90 27.00 398.90 28.15L398.90 48.55Q398.90 50.90 396.70 50.90Q395.60 50.90 395.03 50.30Q394.45 49.70 394.45 48.55L394.45 44.20L395.10 45.05Q394.10 47.95 391.88 49.47Q389.65 51 386.65 51ZM408.45 50.90Q407.40 50.90 406.80 50.30Q406.20 49.70 406.20 48.55L406.20 28.15Q406.20 27.00 406.80 26.42Q407.40 25.85 408.45 25.85Q409.50 25.85 410.08 26.42Q410.65 27.00 410.65 28.15L410.65 32.25L410.10 31.50Q411.15 28.65 413.53 27.20Q415.90 25.75 418.95 25.75Q421.90 25.75 423.80 26.80Q425.70 27.85 426.65 30.00Q427.60 32.15 427.60 35.45L427.60 48.55Q427.60 49.70 427.03 50.30Q426.45 50.90 425.35 50.90Q424.25 50.90 423.65 50.30Q423.05 49.70 423.05 48.55L423.05 35.70Q423.05 32.45 421.80 30.95Q420.55 29.45 417.80 29.45Q414.60 29.45 412.68 31.42Q410.75 33.40 410.75 36.75L410.75 48.55Q410.75 50.90 408.45 50.90ZM437.05 50.90Q436.00 50.90 435.40 50.30Q434.80 49.70 434.80 48.55L434.80 17.25Q434.80 16.10 435.40 15.52Q436.00 14.95 437.05 14.95Q438.15 14.95 438.75 15.52Q439.35 16.10 439.35 17.25L439.35 36.95L439.45 36.95L449.25 27.40Q450.00 26.65 450.60 26.25Q451.20 25.85 452.15 25.85Q453.10 25.85 453.60 26.32Q454.10 26.80 454.10 27.52Q454.10 28.25 453.40 28.95L443.00 39.05L443.00 36.80L454.35 47.75Q455.05 48.45 455.03 49.20Q455.00 49.95 454.48 50.42Q453.95 50.90 453.10 50.90Q452.10 50.90 451.48 50.50Q450.85 50.10 450.05 49.25L439.45 39.25L439.35 39.25L439.35 48.55Q439.35 50.90 437.05 50.90ZM462.45 50.80Q461.40 50.80 460.80 50.15Q460.20 49.50 460.20 48.35L460.20 28.40Q460.20 27.20 460.80 26.57Q461.40 25.95 462.45 25.95Q463.55 25.95 464.15 26.57Q464.75 27.20 464.75 28.40L464.75 48.35Q464.75 49.50 464.18 50.15Q463.60 50.80 462.45 50.80M462.45 20.55Q461.10 20.55 460.33 19.82Q459.55 19.10 459.55 17.90Q459.55 16.60 460.33 15.92Q461.10 15.25 462.45 15.25Q463.90 15.25 464.63 15.92Q465.35 16.60 465.35 17.90Q465.35 19.10 464.63 19.82Q463.90 20.55 462.45 20.55ZM474.30 50.90Q473.25 50.90 472.65 50.30Q472.05 49.70 472.05 48.55L472.05 28.15Q472.05 27.00 472.65 26.42Q473.25 25.85 474.30 25.85Q475.35 25.85 475.93 26.42Q476.50 27.00 476.50 28.15L476.50 32.25L475.95 31.50Q477.00 28.65 479.38 27.20Q481.75 25.75 484.80 25.75Q487.75 25.75 489.65 26.80Q491.55 27.85 492.50 30.00Q493.45 32.15 493.45 35.45L493.45 48.55Q493.45 49.70 492.88 50.30Q492.30 50.90 491.20 50.90Q490.10 50.90 489.50 50.30Q488.90 49.70 488.90 48.55L488.90 35.70Q488.90 32.45 487.65 30.95Q486.40 29.45 483.65 29.45Q480.45 29.45 478.53 31.42Q476.60 33.40 476.60 36.75L476.60 48.55Q476.60 50.90 474.30 50.90ZM511.60 60Q508.90 60 506.38 59.40Q503.85 58.80 501.80 57.55Q501.15 57.15 500.93 56.63Q500.70 56.10 500.83 55.55Q500.95 55 501.33 54.57Q501.70 54.15 502.23 54.02Q502.75 53.90 503.30 54.25Q505.50 55.50 507.50 55.95Q509.50 56.40 511.30 56.40Q514.85 56.40 516.63 54.57Q518.40 52.75 518.40 49.25L518.40 43.85L518.85 43.85Q518.15 46.65 515.73 48.30Q513.30 49.95 510.10 49.95Q506.80 49.95 504.35 48.42Q501.90 46.90 500.55 44.17Q499.20 41.45 499.20 37.85Q499.20 35.10 499.98 32.88Q500.75 30.65 502.18 29.07Q503.60 27.50 505.60 26.62Q507.60 25.75 510.10 25.75Q513.35 25.75 515.75 27.40Q518.15 29.05 518.85 31.85L518.30 32.55L518.30 28.15Q518.30 27.00 518.90 26.42Q519.50 25.85 520.60 25.85Q521.65 25.85 522.25 26.42Q522.85 27.00 522.85 28.15L522.85 48.65Q522.85 54.30 519.98 57.15Q517.10 60 511.60 60M511.10 46.35Q513.35 46.35 514.98 45.32Q516.60 44.30 517.48 42.38Q518.35 40.45 518.35 37.85Q518.35 33.90 516.40 31.62Q514.45 29.35 511.10 29.35Q508.85 29.35 507.23 30.37Q505.60 31.40 504.70 33.30Q503.80 35.20 503.80 37.85Q503.80 41.75 505.78 44.05Q507.75 46.35 511.10 46.35Z"/></g></g></svg>